# xmcd
#
# Track frame offsets:
#	150
#	14842
#	31484
#	42453
#	58916
#	74830
#	89618
#	102564
#	114066
#	134263
#	147031
#	165678
#	178697
#	196671
#	209280
#	221363
#	237747
#	252111
#
# Disc length: 3576 seconds
#
# Revision: 0
# Processed by: cddbd v1.4PL0 Copyright (c) Steve Scherf et al.
# Submitted via: dBpowerAMP V4.0
#
DISCID=140df612
DTITLE=Grasshoppers - Live
DYEAR=1900
DGENRE=Bluegrass
TTITLE0=Good Hearted Woman
TTITLE1=Five Hundred Miles
TTITLE2=Too Gone Too Long
TTITLE3=See You Later Alligator
TTITLE4=I'll Be Your Baby Tonight
TTITLE5=Healin' Kind
TTITLE6=One More Last Change
TTITLE7=Hey Good Lookin'
TTITLE8=Will The Circle Be Unbroken
TTITLE9=Blue Suede Shoes
TTITLE10=Call Me The Breeze
TTITLE11=Lonesome Me
TTITLE12=I Swear
TTITLE13=Dream Baby
TTITLE14=Rock Around The Clock
TTITLE15=Me And Bobby Mc Gee
TTITLE16=Drunk and Crazy
TTITLE17=Lay Down Sally
EXTD=
EXTT0=
EXTT1=
EXTT2=
EXTT3=
EXTT4=
EXTT5=
EXTT6=
EXTT7=
EXTT8=
EXTT9=
EXTT10=
EXTT11=
EXTT12=
EXTT13=
EXTT14=
EXTT15=
EXTT16=
EXTT17=
PLAYORDER=
